<?xml version="1.0" encoding="utf-8"?>
<!-- Generator: Adobe Illustrator 26.1.0, SVG Export Plug-In . SVG Version: 6.00 Build 0)  -->
<svg version="1.1" id="Layer_1" xmlns="http://www.w3.org/2000/svg" xmlns:xlink="http://www.w3.org/1999/xlink" x="0px" y="0px"
	 viewBox="0 0 240 64" style="enable-background:new 0 0 240 64;" xml:space="preserve">
<style type="text/css">
	.st0{fill:#A50000;}
</style>
<g>
	<path d="M103.6,43.1c3.6,0,5.9-3,5.9-7.6c0-4.7-2.3-7.6-5.9-7.6c-3.6,0-5.9,3-5.9,7.6C97.7,40.1,100,43.1,103.6,43.1 M103.6,46.1
		c-5.6,0-9.5-4.3-9.5-10.6c0-6.3,3.9-10.6,9.5-10.6s9.5,4.3,9.5,10.6C113.1,41.8,109.2,46.1,103.6,46.1"/>
	<path d="M127.1,28.7c-0.6-0.1-1.1-0.2-1.7-0.2c-3,0-5.3,2.3-5.3,5.9v11.1h-3.5V25.3h3.5v3.5c0.9-2.1,2.9-3.6,5.6-3.6
		c0.5,0,1.1,0,1.4,0.1V28.7z"/>
</g>
<path d="M138.4,34.8h7.9l-4-10.8L138.4,34.8z M145.7,17.7l10.5,28h-5.8l-2.2-6h-11.5l-2.2,6h-5.7l10.4-28H145.7z"/>
<g>
	<path d="M169.2,21.8c-0.5,0-0.8,0-1.4,0c-1.7,0-2.6,0.5-2.6,2.5v0.8h4v4.6h-4v15.9h-5.5V29.7H157v-4.6h2.8V24
		c0-4.3,2.3-6.7,7.4-6.7c0.8,0,1.2,0,2.1,0.1V21.8z"/>
	<path d="M184.7,30.4c-0.6-0.1-1.1-0.1-1.8-0.1c-2.8,0-5,1.8-5,4.9v10.4h-5.5V25.1h5.5V28c0.9-1.8,2.9-3,5.5-3c0.5,0,0.9,0,1.3,0.1
		V30.4z"/>
</g>
<polygon points="204.3,33.1 211.5,25.1 218,25.1 210.5,32.9 218.6,45.6 212.4,45.6 206.7,36.9 204.3,39.4 204.3,45.6 198.9,45.6 
	198.9,17.7 204.3,17.7 "/>
<g>
	<path d="M232.5,36.2l-4,0.8c-1.8,0.4-3.1,0.9-3.1,2.6c0,1.4,1.1,2.2,2.7,2.2c2.3,0,4.4-1.2,4.4-3.5V36.2z M220,39.9
		c0-4.1,3.3-5.8,7.4-6.5l5.1-1v-0.3c0-1.8-0.9-2.8-3.2-2.8c-2,0-3.1,0.9-3.5,2.7l-5.2-1c0.9-3.5,4.1-6.3,8.9-6.3
		c5.2,0,8.3,2.4,8.3,7.1v8.4c0,1.1,0.5,1.4,1.7,1.3v4.1c-3.5,0.5-5.6-0.2-6.5-1.9c-1.3,1.4-3.4,2.3-6.1,2.3
		C223,46,220,43.6,220,39.9"/>
	<path class="st0" d="M26.7,54c-9.1,0-5.5-9-15.7-20.6C2.9,24.2,14.4,8.1,26.7,8.1c12.2,0,23,9.7,20.3,21.6
		C44.2,41.5,38.9,54,26.7,54 M26.6,0.2C10,0.2-4.2,19.1,2.3,34.3c6.1,14.2,10.8,28.8,24.2,28.8c16.6,0,26.5-16.6,30-32.9
		C60,14,43.1,0.2,26.6,0.2"/>
</g>
<polygon points="75.1,45.6 75.1,17.7 93.1,17.7 93.1,20.9 78.8,20.9 78.8,29.9 90.9,29.9 90.9,33.2 78.8,33.2 78.8,45.6 "/>
<rect x="188.2" y="25.1" width="5.5" height="20.5"/>
<g>
	<path d="M190.8,15.3c1.8,0,3.4,1.7,3.4,3.8s-1.6,3.4-3.3,4c-1.8,0.6-3-0.9-3.4-3.8C187.3,17.2,189,15.4,190.8,15.3"/>
</g>
</svg>
