<?xml version="1.0" encoding="utf-8"?>
<!-- Generator: Adobe Illustrator 27.4.1, SVG Export Plug-In . SVG Version: 6.00 Build 0)  -->
<svg version="1.1" id="Layer_1" xmlns="http://www.w3.org/2000/svg" xmlns:xlink="http://www.w3.org/1999/xlink" x="0px" y="0px"
	 viewBox="0 0 1920 1080" style="enable-background:new 0 0 1920 1080;" xml:space="preserve">
<style type="text/css">
	.st0{fill:#BE6B04;}
	.st1{clip-path:url(#SVGID_00000038401890055538628720000002190707987873961350_);fill:#C06F0B;}
</style>
<rect x="-0.2" y="0.4" class="st0" width="1920" height="1080"/>
<g>
	<defs>
		<rect id="SVGID_1_" x="-0.2" y="0.4" width="1920" height="1080"/>
	</defs>
	<clipPath id="SVGID_00000152965168998860677410000000713134611664537263_">
		<use xlink:href="#SVGID_1_"  style="overflow:visible;"/>
	</clipPath>
	<path style="clip-path:url(#SVGID_00000152965168998860677410000000713134611664537263_);fill:#C06F0B;" d="M492.2,881.2l26.8-56.1
		h-20.4l-26.8,56.1H492.2z M454,881.2l26.8-56.1h-20.4l-26.8,56.1H454z M530.4,881.2l26.8-56.1h-20.4L510,881.2H530.4z M-87.5,81.1
		c0,19.1-15.3,34.4-34.4,34.4c-17.8,0-33.1-15.3-33.1-34.4c0-17.8,15.3-33.1,33.1-33.1C-102.8,48-87.5,63.3-87.5,81.1 M-186.8,81.1
		c0,36.9,29.3,66.2,65,66.2s65-29.3,65-66.2c0-35.7-29.3-65-65-65S-186.8,45.4-186.8,81.1 M415.8,881.2l26.8-56.1h-20.4l-26.8,56.1
		H415.8z M301.1,881.2l25.5-56.1h-19.1l-26.8,56.1H301.1z M339.3,881.2l25.5-56.1h-19.1l-26.8,56.1H339.3z M377.5,881.2l26.8-56.1
		h-20.4l-26.8,56.1H377.5z M684.6,881.2l25.5-56.1h-20.4l-25.5,56.1H684.6z M856.6,81.1c0,19.1-15.3,34.4-33.1,34.4
		c-19.1,0-34.4-15.3-34.4-34.4c0-17.8,15.3-33.1,34.4-33.1C841.3,48,856.6,63.3,856.6,81.1 M757.2,81.1c0,36.9,29.3,66.2,66.2,66.2
		c35.7,0,65-29.3,65-66.2c0-35.7-29.3-65-65-65C786.5,16.1,757.2,45.4,757.2,81.1 M-273.5,255.6l26.8-56.1h-20.4l-26.8,56.1H-273.5z
		 M913.9,255.6l25.5-56.1H919l-25.5,56.1H913.9z M-255.6,4.7h25.5v159.3h-25.5V4.7z M-20,4.7H5.5v159.3H-20V4.7z M215.7,4.7h26.8
		v159.3h-26.8V4.7z M452.7,4.7h25.5v159.3h-25.5V4.7z M688.4,4.7h25.5v159.3h-25.5V4.7z M959.8-5.5H823.5
		c47.1,0,86.6,39.5,86.6,86.6c0,48.4-39.5,86.6-86.6,86.6c-48.4,0-87.9-38.2-87.9-86.6c0-47.1,39.5-86.6,87.9-86.6h-237
		c48.4,0,86.6,39.5,86.6,86.6c0,48.4-38.2,86.6-86.6,86.6c-47.1,0-86.6-38.2-86.6-86.6c0-47.1,39.5-86.6,86.6-86.6H350.8
		c47.1,0,86.6,39.5,86.6,86.6c0,48.4-39.5,86.6-86.6,86.6c-48.4,0-86.6-38.2-86.6-86.6c0-47.1,38.2-86.6,86.6-86.6h-237
		c48.4,0,87.9,39.5,87.9,86.6c0,48.4-39.5,86.6-87.9,86.6c-47.1,0-86.6-38.2-86.6-86.6c0-47.1,39.5-86.6,86.6-86.6h-235.7
		c48.4,0,86.6,39.5,86.6,86.6c0,48.4-38.2,86.6-86.6,86.6c-47.1,0-86.6-38.2-86.6-86.6c0-47.1,39.5-86.6,86.6-86.6h-192.4v189.8
		h1274V-5.5z M148.2,81.1c0,19.1-15.3,34.4-34.4,34.4c-17.8,0-33.1-15.3-33.1-34.4C80.7,63.3,96,48,113.8,48
		C132.9,48,148.2,63.3,148.2,81.1 M48.8,81.1c0,36.9,29.3,66.2,65,66.2c36.9,0,66.2-29.3,66.2-66.2c0-35.7-29.3-65-66.2-65
		C78.1,16.1,48.8,45.4,48.8,81.1 M620.9,81.1c0,19.1-15.3,34.4-34.4,34.4c-17.8,0-33.1-15.3-33.1-34.4c0-17.8,15.3-33.1,33.1-33.1
		C605.6,48,620.9,63.3,620.9,81.1 M521.5,81.1c0,36.9,29.3,66.2,65,66.2c36.9,0,66.2-29.3,66.2-66.2c0-35.7-29.3-65-66.2-65
		C550.8,16.1,521.5,45.4,521.5,81.1 M568.7,881.2l26.8-56.1H575l-26.8,56.1H568.7z M606.9,881.2l26.8-56.1h-20.4l-25.5,56.1H606.9z
		 M646.4,881.2l25.5-56.1h-20.4L626,881.2H646.4z M383.9,81.1c0,19.1-15.3,34.4-33.1,34.4c-19.1,0-34.4-15.3-34.4-34.4
		c0-17.8,15.3-33.1,34.4-33.1C368.6,48,383.9,63.3,383.9,81.1 M284.5,81.1c0,36.9,30.6,66.2,66.2,66.2s65-29.3,65-66.2
		c0-35.7-29.3-65-65-65S284.5,45.4,284.5,81.1 M33.6,881.2L59,825.1H38.7l-25.5,56.1H33.6z M316.4,999.7c0-19.1,15.3-34.4,34.4-34.4
		c17.8,0,33.1,15.3,33.1,34.4c0,17.8-15.3,33.1-33.1,33.1C331.7,1032.8,316.4,1017.5,316.4,999.7 M415.8,999.7
		c0-36.9-29.3-66.2-65-66.2s-66.2,29.3-66.2,66.2c0,35.7,30.6,65,66.2,65S415.8,1035.3,415.8,999.7 M553.4,999.7
		c0-19.1,15.3-34.4,33.1-34.4c19.1,0,34.4,15.3,34.4,34.4c0,17.8-15.3,33.1-34.4,33.1C568.7,1032.8,553.4,1017.5,553.4,999.7
		 M652.7,999.7c0-36.9-29.3-66.2-66.2-66.2c-35.7,0-65,29.3-65,66.2c0,35.7,29.3,65,65,65C623.4,1064.6,652.7,1035.3,652.7,999.7
		 M-42.9,881.2l25.5-56.1h-20.4l-25.5,56.1H-42.9z M-158.8,881.2l26.8-56.1h-20.4l-25.5,56.1H-158.8z M-81.1,881.2l25.5-56.1H-76
		l-25.5,56.1H-81.1z M-119.3,881.2l25.5-56.1h-20.4l-25.5,56.1H-119.3z M735.6,999.7c0-48.4,39.5-86.6,87.9-86.6
		c47.1,0,86.6,38.2,86.6,86.6c0,47.1-39.5,86.6-86.6,86.6C775,1086.3,735.6,1046.8,735.6,999.7 M688.4,923.2h25.5v159.3h-25.5V923.2
		z M499.9,999.7c0-48.4,39.5-86.6,86.6-86.6c48.4,0,86.6,38.2,86.6,86.6c0,47.1-38.2,86.6-86.6,86.6
		C539.3,1086.3,499.9,1046.8,499.9,999.7 M452.7,923.2h25.5v159.3h-25.5V923.2z M264.2,999.7c0-48.4,38.2-86.6,86.6-86.6
		c47.1,0,86.6,38.2,86.6,86.6c0,47.1-39.5,86.6-86.6,86.6C302.4,1086.3,264.2,1046.8,264.2,999.7 M215.7,923.2h26.8v159.3h-26.8
		V923.2z M27.2,999.7c0-48.4,39.5-86.6,86.6-86.6c48.4,0,87.9,38.2,87.9,86.6c0,47.1-39.5,86.6-87.9,86.6
		C66.7,1086.3,27.2,1046.8,27.2,999.7 M-20,923.2H5.5v159.3H-20V923.2z M-208.5,999.7c0-48.4,39.5-86.6,86.6-86.6
		c48.4,0,86.6,38.2,86.6,86.6c0,47.1-38.2,86.6-86.6,86.6C-169,1086.3-208.5,1046.8-208.5,999.7 M-255.6,923.2h25.5v159.3h-25.5
		V923.2z M959.8,896.5h-1274v189.8h1274V896.5z M931.8,881.2h28v-56.1h-2.5L931.8,881.2z M-284.9,199.6h-29.3v56.1h2.5L-284.9,199.6
		z M-197,881.2l26.8-56.1h-20.4l-26.8,56.1H-197z M789.1,999.7c0-19.1,15.3-34.4,34.4-34.4c17.8,0,33.1,15.3,33.1,34.4
		c0,17.8-15.3,33.1-33.1,33.1C804.3,1032.8,789.1,1017.5,789.1,999.7 M888.4,999.7c0-36.9-29.3-66.2-65-66.2
		c-36.9,0-66.2,29.3-66.2,66.2c0,35.7,29.3,65,66.2,65C859.1,1064.6,888.4,1035.3,888.4,999.7 M-228.9,825.1l-26.8,56.1h20.4
		l26.8-56.1H-228.9z M-155,999.7c0-19.1,15.3-34.4,33.1-34.4c19.1,0,34.4,15.3,34.4,34.4c0,17.8-15.3,33.1-34.4,33.1
		C-139.7,1032.8-155,1017.5-155,999.7 M-56.9,999.7c0-36.9-29.3-66.2-65-66.2s-65,29.3-65,66.2c0,35.7,29.3,65,65,65
		S-56.9,1035.3-56.9,999.7 M186.4,881.2l25.5-56.1h-20.4l-25.5,56.1H186.4z M224.7,881.2l25.5-56.1h-20.4l-25.5,56.1H224.7z
		 M-284.9,825.1h-29.3v56.1h2.5L-284.9,825.1z M262.9,881.2l25.5-56.1H268l-25.5,56.1H262.9z M-4.7,881.2l25.5-56.1H0.4L-25,881.2
		H-4.7z M148.2,881.2l25.5-56.1h-20.4l-25.5,56.1H148.2z M71.8,881.2l25.5-56.1H76.9l-25.5,56.1H71.8z M875.7,255.6l25.5-56.1h-20.4
		l-25.5,56.1H875.7z M110,881.2l25.5-56.1h-20.4l-25.5,56.1H110z M80.7,999.7c0-19.1,15.3-34.4,33.1-34.4
		c19.1,0,34.4,15.3,34.4,34.4c0,17.8-15.3,33.1-34.4,33.1C96,1032.8,80.7,1017.5,80.7,999.7 M180.1,999.7
		c0-36.9-29.3-66.2-66.2-66.2c-35.7,0-65,29.3-65,66.2c0,35.7,29.3,65,65,65C150.8,1064.6,180.1,1035.3,180.1,999.7 M-4.7,255.6
		l25.5-56.1H0.4L-25,255.6H-4.7z M-226.3,793.3c-8.9-8.9-7.6-21.7,0-30.6c8.9-7.6,22.9-7.6,30.6,1.3c8.9,7.6,8.9,21.7,0,29.3
		C-204.7,802.2-218.7,802.2-226.3,793.3 M-155,734.7c-8.9-8.9-8.9-21.7,0-30.6c8.9-7.6,21.7-7.6,30.6,1.3c7.6,7.6,7.6,21.7-1.3,30.6
		C-133.3,743.6-147.4,743.6-155,734.7 M78.1,781.8H-76l77.7-91.7L78.1,781.8z M-84.9,676.1c-7.6-7.6-7.6-21.7,1.3-30.6
		c7.6-7.6,21.7-7.6,30.6,1.3c7.6,7.6,7.6,21.7-1.3,30.6C-63.3,685-76,685-84.9,676.1 M87.1,644.2c8.9,8.9,8.9,21.7,1.3,30.6
		c-8.9,8.9-21.7,8.9-30.6,0c-8.9-7.6-8.9-21.7-1.3-29.3C65.4,636.6,79.4,636.6,87.1,644.2 M-13.6,617.5c-8.9-7.6-7.6-21.7,0-30.6
		c8.9-7.6,22.9-7.6,30.6,1.3c8.9,8.9,7.6,21.7,0,30.6C8.1,626.4-5.9,626.4-13.6,617.5 M158.4,702.8c8.9,7.6,8.9,21.7,0,30.6
		c-7.6,8.9-21.7,8.9-29.3,0c-8.9-7.6-8.9-21.7-1.3-30.6C136.8,695.2,149.5,693.9,158.4,702.8 M229.8,761.4c7.6,7.6,8.9,21.7,0,30.6
		c-7.6,7.6-21.7,8.9-30.6,0c-8.9-7.6-8.9-21.7,0-30.6C206.8,753.8,220.8,752.5,229.8,761.4 M304.9,809.8L3,553.8L-299,809.8H304.9z
		 M722.8,881.2l25.5-56.1h-20.4l-25.5,56.1H722.8z M799.3,881.2l25.5-56.1h-20.4l-25.5,56.1H799.3z M761,881.2l25.5-56.1h-20.4
		l-25.5,56.1H761z M931.8,255.6h28v-56.1h-2.5L931.8,255.6z M-228.9,199.6l-26.8,56.1h20.4l26.8-56.1H-228.9z M-81.1,255.6
		l25.5-56.1H-76l-25.5,56.1H-81.1z M-119.3,255.6l25.5-56.1h-20.4l-25.5,56.1H-119.3z M837.5,881.2l25.5-56.1h-20.4l-25.5,56.1
		H837.5z M-158.8,255.6l26.8-56.1h-20.4l-25.5,56.1H-158.8z M-197,255.6l26.8-56.1h-20.4l-26.8,56.1H-197z M913.9,881.2l25.5-56.1
		H919l-25.5,56.1H913.9z M-13.6,469.7c7.6-8.9,21.7-8.9,30.6,0c7.6,7.6,8.9,21.7,0,30.6c-7.6,7.6-21.7,7.6-30.6,0
		C-21.2,492.6-22.5,478.6-13.6,469.7 M56.5,442.9c-7.6-8.9-7.6-21.7,1.3-30.6c8.9-7.6,21.7-7.6,30.6,1.3c7.6,7.6,7.6,21.7-1.3,29.3
		C79.4,451.8,65.4,451.8,56.5,442.9 M-83.7,441.6c-8.9-7.6-8.9-21.7-1.3-30.6c8.9-7.6,21.7-8.9,30.6,0c8.9,7.6,8.9,21.7,1.3,30.6
		C-62,449.3-76,450.6-83.7,441.6 M-76,307.9H78.1L1.7,398.3L-76,307.9z M-155,383c-8.9-7.6-8.9-21.7,0-30.6c7.6-7.6,21.7-8.9,29.3,0
		c8.9,7.6,8.9,21.7,1.3,30.6C-133.3,392-146.1,392-155,383 M-226.3,324.4c-7.6-7.6-8.9-21.7,0-29.3c7.6-8.9,21.7-8.9,30.6-1.3
		c8.9,8.9,8.9,21.7,0,30.6C-203.4,333.4-217.4,333.4-226.3,324.4 M229.8,296.4c8.9,7.6,7.6,21.7,0,30.6c-8.9,7.6-22.9,7.6-30.6-1.3
		c-8.9-7.6-8.9-21.7,0-30.6C208.1,287.5,222.1,287.5,229.8,296.4 M158.4,355c8.9,7.6,8.9,21.7,0,30.6c-8.9,7.6-21.7,7.6-30.6-1.3
		c-7.6-8.9-7.6-21.7,1.3-30.6C136.8,346.1,150.8,346.1,158.4,355 M306.2,270.9h-606.4L3,527L306.2,270.9z M840,793.3
		c-8.9-7.6-8.9-21.7,0-29.3c7.6-8.9,21.7-8.9,29.3-1.3c8.9,8.9,8.9,21.7,1.3,30.6C861.7,802.2,848.9,802.2,840,793.3 M414.5,792
		c-8.9-8.9-8.9-22.9,0-30.6c8.9-8.9,22.9-7.6,30.6,0c8.9,8.9,7.6,22.9,0,30.6C436.2,800.9,422.1,799.7,414.5,792 M484.6,733.4
		c-7.6-8.9-7.6-22.9,1.3-30.6c8.9-8.9,21.7-7.6,30.6,0c7.6,8.9,7.6,22.9-1.3,30.6C507.5,742.3,493.5,742.3,484.6,733.4 M720.3,781.8
		H566.1l76.4-91.7L720.3,781.8z M698.6,677.3c-8.9-8.9-8.9-22.9-1.3-30.6c8.9-8.9,21.7-8.9,30.6-1.3c8.9,8.9,8.9,22.9,1.3,30.6
		C720.3,685,706.2,685,698.6,677.3 M555.9,674.8c-7.6-8.9-7.6-21.7,0-30.6c8.9-7.6,22.9-7.6,30.6,1.3c8.9,7.6,8.9,21.7,0,29.3
		C577.6,683.7,563.6,683.7,555.9,674.8 M627.3,618.7c-8.9-8.9-8.9-21.7,0-30.6c7.6-8.9,21.7-8.9,29.3-1.3c8.9,8.9,8.9,22.9,1.3,30.6
		C648.9,626.4,636.2,626.4,627.3,618.7 M799.3,704.1c7.6,8.9,8.9,21.7,0,30.6c-7.6,8.9-21.7,8.9-30.6,1.3c-7.6-8.9-8.9-22.9,0-30.6
		C776.3,696.5,790.3,696.5,799.3,704.1 M943.2,809.8L641.3,553.8L339.3,809.8H943.2z M898.6,676.1L738.1,541l160.5-136.3V676.1z
		 M949.6,786.9V293.9L659.1,541L949.6,786.9z M851.5,574.1L810.7,541l40.8-34.4V574.1z M877,630.2V451.8L771.2,541L877,630.2z
		 M-207.2,506.6l39.5,34.4l-39.5,33.1V506.6z M-232.7,451.8v178.4L-127,541L-232.7,451.8z M-254.4,404.7L-93.8,541l-160.5,135V404.7
		z M-305.3,293.9v493.1L-14.9,541L-305.3,293.9z M-42.9,255.6l25.5-56.1h-20.4l-25.5,56.1H-42.9z M-273.5,881.2l26.8-56.1h-20.4
		l-26.8,56.1H-273.5z M414.5,541l-91.7,77.7h-1.3L229.8,541l91.7-79v1.3l1.3-1.3L414.5,541z M321.5,380.5L132.9,541l188.6,159.3h1.3
		L511.3,541L322.8,380.5l-1.3,1.3V380.5z M875.7,881.2l25.5-56.1h-20.4l-25.5,56.1H875.7z M322.8,352.5L544.4,541L322.8,728.3h-1.3
		L99.8,541l221.7-188.6H322.8z M20.8,541l300.7,254.8L623.4,541L322.8,284.9h-1.3L20.8,541z M186.4,255.6l25.5-56.1h-20.4
		l-25.5,56.1H186.4z M606.9,255.6l26.8-56.1h-20.4l-25.5,56.1H606.9z M568.7,255.6l26.8-56.1H575l-26.8,56.1H568.7z M492.2,255.6
		l26.8-56.1h-20.4l-26.8,56.1H492.2z M530.4,255.6l26.8-56.1h-20.4L510,255.6H530.4z M646.4,255.6l25.5-56.1h-20.4L626,255.6H646.4z
		 M761,255.6l25.5-56.1h-20.4l-25.5,56.1H761z M799.3,255.6l25.5-56.1h-20.4l-25.5,56.1H799.3z M684.6,255.6l25.5-56.1h-20.4
		l-25.5,56.1H684.6z M454,255.6l26.8-56.1h-20.4l-26.8,56.1H454z M722.8,255.6l25.5-56.1h-20.4l-25.5,56.1H722.8z M415.8,255.6
		l26.8-56.1h-20.4l-26.8,56.1H415.8z M837.5,255.6l25.5-56.1h-20.4l-25.5,56.1H837.5z M110,255.6l25.5-56.1h-20.4l-25.5,56.1H110z
		 M148.2,255.6l25.5-56.1h-20.4l-25.5,56.1H148.2z M870.6,295.1c7.6,7.6,7.6,21.7-1.3,29.3c-7.6,8.9-21.7,8.9-29.3,0
		c-8.9-8.9-8.9-21.7,0-30.6C848.9,286.2,861.7,286.2,870.6,295.1 M799.3,352.5c8.9,8.9,7.6,22.9,0,30.6c-8.9,8.9-22.9,8.9-30.6,0
		c-8.9-8.9-7.6-22.9,0-30.6C777.6,343.5,791.6,344.8,799.3,352.5 M566.1,307.9h154.2l-77.7,90.5L566.1,307.9z M729.2,411.1
		c7.6,8.9,7.6,22.9-1.3,30.6c-8.9,8.9-21.7,7.6-30.6,0c-7.6-8.9-7.6-22.9,1.3-30.6C706.2,402.2,720.3,403.4,729.2,411.1
		 M555.9,442.9c-7.6-7.6-7.6-21.7,0-29.3c7.6-8.9,21.7-8.9,30.6-1.3c8.9,8.9,8.9,21.7,0,30.6C578.8,451.8,564.8,451.8,555.9,442.9
		 M657.8,469.7c7.6,8.9,7.6,22.9-1.3,30.6c-7.6,7.6-21.7,7.6-29.3,0c-8.9-8.9-8.9-22.9,0-30.6C636.2,460.8,648.9,460.8,657.8,469.7
		 M485.8,385.6c-8.9-8.9-8.9-22.9-1.3-30.6c8.9-8.9,22.9-8.9,30.6-1.3c8.9,8.9,8.9,21.7,1.3,30.6
		C507.5,393.2,494.8,393.2,485.8,385.6 M414.5,327c-8.9-8.9-8.9-22.9,0-30.6c7.6-8.9,21.7-8.9,30.6-1.3c7.6,8.9,8.9,22.9,0,30.6
		C437.4,334.6,423.4,334.6,414.5,327 M338.1,270.9L641.3,527l303.2-256.1H338.1z M33.6,255.6L59,199.6H38.7l-25.5,56.1H33.6z
		 M71.8,255.6l25.5-56.1H76.9l-25.5,56.1H71.8z M301.1,255.6l25.5-56.1h-19.1l-26.8,56.1H301.1z M339.3,255.6l25.5-56.1h-19.1
		l-26.8,56.1H339.3z M224.7,255.6l25.5-56.1h-20.4l-25.5,56.1H224.7z M377.5,255.6l26.8-56.1h-20.4l-26.8,56.1H377.5z M262.9,255.6
		l25.5-56.1H268l-25.5,56.1H262.9z"/>
	<path style="clip-path:url(#SVGID_00000152965168998860677410000000713134611664537263_);fill:#C06F0B;" d="M1766.2,881.2
		l26.8-56.1h-20.4l-26.8,56.1H1766.2z M1728,881.2l26.8-56.1h-20.4l-26.8,56.1H1728z M1804.5,881.2l26.8-56.1h-20.4l-26.8,56.1
		H1804.5z M1186.6,81.1c0,19.1-15.3,34.4-34.4,34.4c-17.8,0-33.1-15.3-33.1-34.4c0-17.8,15.3-33.1,33.1-33.1
		C1171.3,48,1186.6,63.3,1186.6,81.1 M1087.2,81.1c0,36.9,29.3,66.2,65,66.2c35.7,0,65-29.3,65-66.2c0-35.7-29.3-65-65-65
		C1116.5,16.1,1087.2,45.4,1087.2,81.1 M1689.8,881.2l26.8-56.1h-20.4l-26.8,56.1H1689.8z M1575.1,881.2l25.5-56.1h-19.1l-26.8,56.1
		H1575.1z M1613.4,881.2l25.5-56.1h-19.1l-26.8,56.1H1613.4z M1651.6,881.2l26.8-56.1H1658l-26.8,56.1H1651.6z M1958.6,881.2
		l25.5-56.1h-20.4l-25.5,56.1H1958.6z M2130.6,81.1c0,19.1-15.3,34.4-33.1,34.4c-19.1,0-34.4-15.3-34.4-34.4
		c0-17.8,15.3-33.1,34.4-33.1C2115.3,48,2130.6,63.3,2130.6,81.1 M2031.2,81.1c0,36.9,29.3,66.2,66.3,66.2c35.7,0,65-29.3,65-66.2
		c0-35.7-29.3-65-65-65C2060.5,16.1,2031.2,45.4,2031.2,81.1 M1000.5,255.6l26.8-56.1h-20.4l-26.8,56.1H1000.5z M2187.9,255.6
		l25.5-56.1H2193l-25.5,56.1H2187.9z M1018.4,4.7h25.5v159.3h-25.5V4.7z M1254.1,4.7h25.5v159.3h-25.5V4.7z M1489.8,4.7h26.8v159.3
		h-26.8V4.7z M1726.7,4.7h25.5v159.3h-25.5V4.7z M1962.4,4.7h25.5v159.3h-25.5V4.7z M2233.8-5.5h-136.3c47.1,0,86.6,39.5,86.6,86.6
		c0,48.4-39.5,86.6-86.6,86.6c-48.4,0-87.9-38.2-87.9-86.6c0-47.1,39.5-86.6,87.9-86.6h-237c48.4,0,86.6,39.5,86.6,86.6
		c0,48.4-38.2,86.6-86.6,86.6c-47.1,0-86.6-38.2-86.6-86.6c0-47.1,39.5-86.6,86.6-86.6h-235.7c47.1,0,86.6,39.5,86.6,86.6
		c0,48.4-39.5,86.6-86.6,86.6c-48.4,0-86.6-38.2-86.6-86.6c0-47.1,38.2-86.6,86.6-86.6h-237c48.4,0,87.9,39.5,87.9,86.6
		c0,48.4-39.5,86.6-87.9,86.6c-47.1,0-86.6-38.2-86.6-86.6c0-47.1,39.5-86.6,86.6-86.6h-235.7c48.4,0,86.6,39.5,86.6,86.6
		c0,48.4-38.2,86.6-86.6,86.6c-47.1,0-86.6-38.2-86.6-86.6c0-47.1,39.5-86.6,86.6-86.6H959.8v189.8h1274V-5.5z M1422.3,81.1
		c0,19.1-15.3,34.4-34.4,34.4c-17.8,0-33.1-15.3-33.1-34.4c0-17.8,15.3-33.1,33.1-33.1C1407,48,1422.3,63.3,1422.3,81.1
		 M1322.9,81.1c0,36.9,29.3,66.2,65,66.2c36.9,0,66.2-29.3,66.2-66.2c0-35.7-29.3-65-66.2-65C1352.2,16.1,1322.9,45.4,1322.9,81.1
		 M1894.9,81.1c0,19.1-15.3,34.4-34.4,34.4c-17.8,0-33.1-15.3-33.1-34.4c0-17.8,15.3-33.1,33.1-33.1
		C1879.6,48,1894.9,63.3,1894.9,81.1 M1795.5,81.1c0,36.9,29.3,66.2,65,66.2c36.9,0,66.2-29.3,66.2-66.2c0-35.7-29.3-65-66.2-65
		C1824.8,16.1,1795.5,45.4,1795.5,81.1 M1842.7,881.2l26.8-56.1h-20.4l-26.8,56.1H1842.7z M1880.9,881.2l26.8-56.1h-20.4l-25.5,56.1
		H1880.9z M1920.4,881.2l25.5-56.1h-20.4l-25.5,56.1H1920.4z M1658,81.1c0,19.1-15.3,34.4-33.1,34.4c-19.1,0-34.4-15.3-34.4-34.4
		c0-17.8,15.3-33.1,34.4-33.1C1642.7,48,1658,63.3,1658,81.1 M1558.6,81.1c0,36.9,30.6,66.2,66.2,66.2c35.7,0,65-29.3,65-66.2
		c0-35.7-29.3-65-65-65C1589.2,16.1,1558.6,45.4,1558.6,81.1 M1307.6,881.2l25.5-56.1h-20.4l-25.5,56.1H1307.6z M1590.4,999.7
		c0-19.1,15.3-34.4,34.4-34.4c17.8,0,33.1,15.3,33.1,34.4c0,17.8-15.3,33.1-33.1,33.1C1605.7,1032.8,1590.4,1017.5,1590.4,999.7
		 M1689.8,999.7c0-36.9-29.3-66.2-65-66.2c-35.7,0-66.2,29.3-66.2,66.2c0,35.7,30.6,65,66.2,65
		C1660.5,1064.6,1689.8,1035.3,1689.8,999.7 M1827.4,999.7c0-19.1,15.3-34.4,33.1-34.4c19.1,0,34.4,15.3,34.4,34.4
		c0,17.8-15.3,33.1-34.4,33.1C1842.7,1032.8,1827.4,1017.5,1827.4,999.7 M1926.8,999.7c0-36.9-29.3-66.2-66.2-66.2
		c-35.7,0-65,29.3-65,66.2c0,35.7,29.3,65,65,65C1897.5,1064.6,1926.8,1035.3,1926.8,999.7 M1231.1,881.2l25.5-56.1h-20.4
		l-25.5,56.1H1231.1z M1115.2,881.2l26.8-56.1h-20.4l-25.5,56.1H1115.2z M1192.9,881.2l25.5-56.1H1198l-25.5,56.1H1192.9z
		 M1154.7,881.2l25.5-56.1h-20.4l-25.5,56.1H1154.7z M2009.6,999.7c0-48.4,39.5-86.6,87.9-86.6c47.1,0,86.6,38.2,86.6,86.6
		c0,47.1-39.5,86.6-86.6,86.6C2049.1,1086.3,2009.6,1046.8,2009.6,999.7 M1962.4,923.2h25.5v159.3h-25.5V923.2z M1773.9,999.7
		c0-48.4,39.5-86.6,86.6-86.6c48.4,0,86.6,38.2,86.6,86.6c0,47.1-38.2,86.6-86.6,86.6C1813.4,1086.3,1773.9,1046.8,1773.9,999.7
		 M1726.7,923.2h25.5v159.3h-25.5V923.2z M1538.2,999.7c0-48.4,38.2-86.6,86.6-86.6c47.1,0,86.6,38.2,86.6,86.6
		c0,47.1-39.5,86.6-86.6,86.6C1576.4,1086.3,1538.2,1046.8,1538.2,999.7 M1489.8,923.2h26.8v159.3h-26.8V923.2z M1301.2,999.7
		c0-48.4,39.5-86.6,86.6-86.6c48.4,0,87.9,38.2,87.9,86.6c0,47.1-39.5,86.6-87.9,86.6C1340.7,1086.3,1301.2,1046.8,1301.2,999.7
		 M1254.1,923.2h25.5v159.3h-25.5V923.2z M1065.5,999.7c0-48.4,39.5-86.6,86.6-86.6c48.4,0,86.6,38.2,86.6,86.6
		c0,47.1-38.2,86.6-86.6,86.6C1105,1086.3,1065.5,1046.8,1065.5,999.7 M1018.4,923.2h25.5v159.3h-25.5V923.2z M2233.8,896.5h-1274
		v189.8h1274V896.5z M2205.8,881.2h28v-56.1h-2.5L2205.8,881.2z M989.1,199.6h-29.3v56.1h2.5L989.1,199.6z M1077,881.2l26.8-56.1
		h-20.4l-26.8,56.1H1077z M2063.1,999.7c0-19.1,15.3-34.4,34.4-34.4c17.8,0,33.1,15.3,33.1,34.4c0,17.8-15.3,33.1-33.1,33.1
		C2078.4,1032.8,2063.1,1017.5,2063.1,999.7 M2162.5,999.7c0-36.9-29.3-66.2-65-66.2c-36.9,0-66.3,29.3-66.3,66.2
		c0,35.7,29.3,65,66.3,65C2133.2,1064.6,2162.5,1035.3,2162.5,999.7 M1045.1,825.1l-26.8,56.1h20.4l26.8-56.1H1045.1z M1119,999.7
		c0-19.1,15.3-34.4,33.1-34.4c19.1,0,34.4,15.3,34.4,34.4c0,17.8-15.3,33.1-34.4,33.1C1134.3,1032.8,1119,1017.5,1119,999.7
		 M1217.1,999.7c0-36.9-29.3-66.2-65-66.2c-35.7,0-65,29.3-65,66.2c0,35.7,29.3,65,65,65C1187.8,1064.6,1217.1,1035.3,1217.1,999.7
		 M1460.5,881.2l25.5-56.1h-20.4l-25.5,56.1H1460.5z M1498.7,881.2l25.5-56.1h-20.4l-25.5,56.1H1498.7z M989.1,825.1h-29.3v56.1h2.5
		L989.1,825.1z M1536.9,881.2l25.5-56.1H1542l-25.5,56.1H1536.9z M1269.4,881.2l25.5-56.1h-20.4l-25.5,56.1H1269.4z M1422.3,881.2
		l25.5-56.1h-20.4l-25.5,56.1H1422.3z M1345.8,881.2l25.5-56.1h-20.4l-25.5,56.1H1345.8z M2149.7,255.6l25.5-56.1h-20.4l-25.5,56.1
		H2149.7z M1384,881.2l25.5-56.1h-20.4l-25.5,56.1H1384z M1354.7,999.7c0-19.1,15.3-34.4,33.1-34.4c19.1,0,34.4,15.3,34.4,34.4
		c0,17.8-15.3,33.1-34.4,33.1C1370,1032.8,1354.7,1017.5,1354.7,999.7 M1454.1,999.7c0-36.9-29.3-66.2-66.2-66.2
		c-35.7,0-65,29.3-65,66.2c0,35.7,29.3,65,65,65C1424.8,1064.6,1454.1,1035.3,1454.1,999.7 M1269.4,255.6l25.5-56.1h-20.4
		l-25.5,56.1H1269.4z M1047.7,793.3c-8.9-8.9-7.6-21.7,0-30.6c8.9-7.6,22.9-7.6,30.6,1.3c8.9,7.6,8.9,21.7,0,29.3
		C1069.3,802.2,1055.3,802.2,1047.7,793.3 M1119,734.7c-8.9-8.9-8.9-21.7,0-30.6c8.9-7.6,21.7-7.6,30.6,1.3
		c7.6,7.6,7.6,21.7-1.3,30.6C1140.7,743.6,1126.7,743.6,1119,734.7 M1352.2,781.8H1198l77.7-91.7L1352.2,781.8z M1189.1,676.1
		c-7.6-7.6-7.6-21.7,1.3-30.6c7.6-7.6,21.7-7.6,30.6,1.3c7.6,7.6,7.6,21.7-1.3,30.6C1210.8,685,1198,685,1189.1,676.1 M1361.1,644.2
		c8.9,8.9,8.9,21.7,1.3,30.6c-8.9,8.9-21.7,8.9-30.6,0c-8.9-7.6-8.9-21.7-1.3-29.3C1339.4,636.6,1353.5,636.6,1361.1,644.2
		 M1260.5,617.5c-8.9-7.6-7.6-21.7,0-30.6c8.9-7.6,22.9-7.6,30.6,1.3c8.9,8.9,7.6,21.7,0,30.6
		C1282.1,626.4,1268.1,626.4,1260.5,617.5 M1432.4,702.8c8.9,7.6,8.9,21.7,0,30.6c-7.6,8.9-21.7,8.9-29.3,0
		c-8.9-7.6-8.9-21.7-1.3-30.6C1410.8,695.2,1423.5,693.9,1432.4,702.8 M1503.8,761.4c7.6,7.6,8.9,21.7,0,30.6
		c-7.6,7.6-21.7,8.9-30.6,0c-8.9-7.6-8.9-21.7,0-30.6C1480.9,753.8,1494.9,752.5,1503.8,761.4 M1579,809.8L1277,553.8L975.1,809.8
		H1579z M1996.8,881.2l25.5-56.1h-20.4l-25.5,56.1H1996.8z M2073.3,881.2l25.5-56.1h-20.4l-25.5,56.1H2073.3z M2035.1,881.2
		l25.5-56.1h-20.4l-25.5,56.1H2035.1z M2205.8,255.6h28v-56.1h-2.5L2205.8,255.6z M1045.1,199.6l-26.8,56.1h20.4l26.8-56.1H1045.1z
		 M1192.9,255.6l25.5-56.1H1198l-25.5,56.1H1192.9z M1154.7,255.6l25.5-56.1h-20.4l-25.5,56.1H1154.7z M2111.5,881.2l25.5-56.1
		h-20.4l-25.5,56.1H2111.5z M1115.2,255.6l26.8-56.1h-20.4l-25.5,56.1H1115.2z M1077,255.6l26.8-56.1h-20.4l-26.8,56.1H1077z
		 M2187.9,881.2l25.5-56.1H2193l-25.5,56.1H2187.9z M1260.5,469.7c7.6-8.9,21.7-8.9,30.6,0c7.6,7.6,8.9,21.7,0,30.6
		c-7.6,7.6-21.7,7.6-30.6,0C1252.8,492.6,1251.5,478.6,1260.5,469.7 M1330.5,442.9c-7.6-8.9-7.6-21.7,1.3-30.6
		c8.9-7.6,21.7-7.6,30.6,1.3c7.6,7.6,7.6,21.7-1.3,29.3C1353.5,451.8,1339.4,451.8,1330.5,442.9 M1190.4,441.6
		c-8.9-7.6-8.9-21.7-1.3-30.6c8.9-7.6,21.7-8.9,30.6,0c8.9,7.6,8.9,21.7,1.3,30.6C1212,449.3,1198,450.6,1190.4,441.6 M1198,307.9
		h154.2l-76.4,90.5L1198,307.9z M1119,383c-8.9-7.6-8.9-21.7,0-30.6c7.6-7.6,21.7-8.9,29.3,0c8.9,7.6,8.9,21.7,1.3,30.6
		C1140.7,392,1128,392,1119,383 M1047.7,324.4c-7.6-7.6-8.9-21.7,0-29.3c7.6-8.9,21.7-8.9,30.6-1.3c8.9,8.9,8.9,21.7,0,30.6
		C1070.6,333.4,1056.6,333.4,1047.7,324.4 M1503.8,296.4c8.9,7.6,7.6,21.7,0,30.6c-8.9,7.6-22.9,7.6-30.6-1.3
		c-8.9-7.6-8.9-21.7,0-30.6C1482.1,287.5,1496.1,287.5,1503.8,296.4 M1432.4,355c8.9,7.6,8.9,21.7,0,30.6
		c-8.9,7.6-21.7,7.6-30.6-1.3c-7.6-8.9-7.6-21.7,1.3-30.6C1410.8,346.1,1424.8,346.1,1432.4,355 M1580.2,270.9H973.8L1277,527
		L1580.2,270.9z M2114.1,793.3c-8.9-7.6-8.9-21.7,0-29.3c7.6-8.9,21.7-8.9,29.3-1.3c8.9,8.9,8.9,21.7,1.3,30.6
		C2135.7,802.2,2123,802.2,2114.1,793.3 M1688.5,792c-8.9-8.9-8.9-22.9,0-30.6c8.9-8.9,22.9-7.6,30.6,0c8.9,8.9,7.6,22.9,0,30.6
		C1710.2,800.9,1696.2,799.7,1688.5,792 M1758.6,733.4c-7.6-8.9-7.6-22.9,1.3-30.6c8.9-8.9,21.7-7.6,30.6,0
		c7.6,8.9,7.6,22.9-1.3,30.6C1781.5,742.3,1767.5,742.3,1758.6,733.4 M1994.3,781.8h-154.2l76.4-91.7L1994.3,781.8z M1972.6,677.3
		c-8.9-8.9-8.9-22.9-1.3-30.6c8.9-8.9,21.7-8.9,30.6-1.3c8.9,8.9,8.9,22.9,1.3,30.6C1994.3,685,1980.3,685,1972.6,677.3
		 M1829.9,674.8c-7.6-8.9-7.6-21.7,0-30.6c8.9-7.6,22.9-7.6,30.6,1.3c8.9,7.6,8.9,21.7,0,29.3
		C1851.6,683.7,1837.6,683.7,1829.9,674.8 M1901.3,618.7c-8.9-8.9-8.9-21.7,0-30.6c7.6-8.9,21.7-8.9,29.3-1.3
		c8.9,8.9,8.9,22.9,1.3,30.6C1922.9,626.4,1910.2,626.4,1901.3,618.7 M2073.3,704.1c7.6,8.9,8.9,21.7,0,30.6
		c-7.6,8.9-21.7,8.9-30.6,1.3c-7.6-8.9-8.9-22.9,0-30.6C2050.4,696.5,2064.4,696.5,2073.3,704.1 M2217.3,809.8l-301.9-256.1
		l-301.9,256.1H2217.3z M2172.7,676.1l-160.5-135l160.5-136.3V676.1z M2223.6,786.9V293.9L1933.1,541L2223.6,786.9z M2125.5,574.1
		l-40.8-33.1l40.8-34.4V574.1z M2151,630.2V451.8L2045.3,541L2151,630.2z M1066.8,506.6l39.5,34.4l-39.5,33.1V506.6z M1041.3,451.8
		v178.4l105.7-89.2L1041.3,451.8z M1019.7,404.7L1180.2,541l-160.5,135V404.7z M968.7,293.9v493.1L1259.2,541L968.7,293.9z
		 M1231.1,255.6l25.5-56.1h-20.4l-25.5,56.1H1231.1z M1000.5,881.2l26.8-56.1h-20.4l-26.8,56.1H1000.5z M1688.5,541l-91.7,77.7h-1.3
		l-91.7-77.7l91.7-79v1.3l1.3-1.3L1688.5,541z M1595.5,380.5L1407,541l188.6,159.3h1.3L1785.4,541l-188.6-160.5l-1.3,1.3V380.5z
		 M2149.7,881.2l25.5-56.1h-20.4l-25.5,56.1H2149.7z M1596.8,352.5L1818.5,541l-221.7,187.3h-1.3L1373.8,541l221.7-188.6H1596.8z
		 M1294.9,541l300.7,254.8L1897.5,541l-300.7-256.1h-1.3L1294.9,541z M1460.5,255.6l25.5-56.1h-20.4l-25.5,56.1H1460.5z
		 M1880.9,255.6l26.8-56.1h-20.4l-25.5,56.1H1880.9z M1842.7,255.6l26.8-56.1h-20.4l-26.8,56.1H1842.7z M1766.2,255.6l26.8-56.1
		h-20.4l-26.8,56.1H1766.2z M1804.5,255.6l26.8-56.1h-20.4l-26.8,56.1H1804.5z M1920.4,255.6l25.5-56.1h-20.4l-25.5,56.1H1920.4z
		 M2035.1,255.6l25.5-56.1h-20.4l-25.5,56.1H2035.1z M2073.3,255.6l25.5-56.1h-20.4l-25.5,56.1H2073.3z M1958.6,255.6l25.5-56.1
		h-20.4l-25.5,56.1H1958.6z M1728,255.6l26.8-56.1h-20.4l-26.8,56.1H1728z M1996.8,255.6l25.5-56.1h-20.4l-25.5,56.1H1996.8z
		 M1689.8,255.6l26.8-56.1h-20.4l-26.8,56.1H1689.8z M2111.5,255.6l25.5-56.1h-20.4l-25.5,56.1H2111.5z M1384,255.6l25.5-56.1h-20.4
		l-25.5,56.1H1384z M1422.3,255.6l25.5-56.1h-20.4l-25.5,56.1H1422.3z M2144.6,295.1c7.6,7.6,7.6,21.7-1.3,29.3
		c-7.6,8.9-21.7,8.9-29.3,0c-8.9-8.9-8.9-21.7,0-30.6C2123,286.2,2135.7,286.2,2144.6,295.1 M2073.3,352.5c8.9,8.9,7.6,22.9,0,30.6
		c-8.9,8.9-22.9,8.9-30.6,0c-8.9-8.9-7.6-22.9,0-30.6C2051.6,343.5,2065.6,344.8,2073.3,352.5 M1840.1,307.9h154.2l-77.7,90.5
		L1840.1,307.9z M2003.2,411.1c7.6,8.9,7.6,22.9-1.3,30.6c-8.9,8.9-21.7,7.6-30.6,0c-7.6-8.9-7.6-22.9,1.3-30.6
		C1980.3,402.2,1994.3,403.4,2003.2,411.1 M1829.9,442.9c-7.6-7.6-7.6-21.7,0-29.3c7.6-8.9,21.7-8.9,30.6-1.3
		c8.9,8.9,8.9,21.7,0,30.6C1852.9,451.8,1838.9,451.8,1829.9,442.9 M1931.9,469.7c7.6,8.9,7.6,22.9-1.3,30.6
		c-7.6,7.6-21.7,7.6-29.3,0c-8.9-8.9-8.9-22.9,0-30.6C1910.2,460.8,1922.9,460.8,1931.9,469.7 M1759.9,385.6
		c-8.9-8.9-8.9-22.9-1.3-30.6c8.9-8.9,22.9-8.9,30.6-1.3c8.9,8.9,8.9,21.7,1.3,30.6C1781.5,393.2,1768.8,393.2,1759.9,385.6
		 M1688.5,327c-8.9-8.9-8.9-22.9,0-30.6c7.6-8.9,21.7-8.9,30.6-1.3c7.6,8.9,8.9,22.9,0,30.6C1711.5,334.6,1697.4,334.6,1688.5,327
		 M1612.1,270.9L1915.3,527l303.2-256.1H1612.1z M1307.6,255.6l25.5-56.1h-20.4l-25.5,56.1H1307.6z M1345.8,255.6l25.5-56.1h-20.4
		l-25.5,56.1H1345.8z M1575.1,255.6l25.5-56.1h-19.1l-26.8,56.1H1575.1z M1613.4,255.6l25.5-56.1h-19.1l-26.8,56.1H1613.4z
		 M1498.7,255.6l25.5-56.1h-20.4l-25.5,56.1H1498.7z M1651.6,255.6l26.8-56.1H1658l-26.8,56.1H1651.6z M1536.9,255.6l25.5-56.1H1542
		l-25.5,56.1H1536.9z"/>
</g>
</svg>
