<?xml version="1.0" encoding="utf-8"?>
<!-- Generator: Adobe Illustrator 27.1.0, SVG Export Plug-In . SVG Version: 6.00 Build 0)  -->
<svg version="1.1" id="Layer_1" xmlns="http://www.w3.org/2000/svg" xmlns:xlink="http://www.w3.org/1999/xlink" x="0px" y="0px"
	 viewBox="0 0 1920 1080" style="enable-background:new 0 0 1920 1080;" xml:space="preserve">
<style type="text/css">
	.st0{fill:#A50000;}
	.st1{clip-path:url(#SVGID_00000177469559632058620800000013339470837531748784_);fill:#AA0D0D;}
</style>
<g>
	<rect x="-14.9" y="-187.6" class="st0" width="1944.9" height="1453.8"/>
	<g>
		<defs>
			<rect id="SVGID_1_" x="-21" y="-300.1" width="1976.8" height="1694.1"/>
		</defs>
		<clipPath id="SVGID_00000031199665426503905370000003124152597171021494_">
			<use xlink:href="#SVGID_1_"  style="overflow:visible;"/>
		</clipPath>
		<path style="clip-path:url(#SVGID_00000031199665426503905370000003124152597171021494_);fill:#AA0D0D;" d="M967.4-92.6
			l241.2-207.6H726.2L967.4-92.6z M574-300.1H421.8l545.6,468.5L1513-300.1h-154.2l-391.4,338L574-300.1z M299.2-300.1H147
			l820.4,705.7l820.4-705.7h-152.2L967.4,275.1L299.2-300.1z M726.2,1394h482.3l-241.2-207.6L726.2,1394z M421.8,1394H576l391.4-338
			l391.4,338H1513L967.4,925.5L421.8,1394z M147,1394h152.2l668.2-575.3l666.2,575.3h154.2L967.4,688.3L147,1394z M1293.6,577.6
			c15.8-19.8,13.8-49.4-5.9-65.2c-19.8-17.8-47.4-15.8-65.2,4c-15.8,19.8-13.8,49.4,5.9,65.2
			C1248.1,599.3,1275.8,595.4,1293.6,577.6 M1386.5,399.7c-15.8-19.8-45.5-21.7-65.2-5.9c-17.8,15.8-21.7,45.5-4,65.2
			c15.8,19.8,45.5,21.7,65.2,5.9C1400.3,447.1,1404.3,417.4,1386.5,399.7 M1515,290.9c-17.8-19.8-47.4-21.7-65.2-5.9
			c-19.8,15.8-21.7,45.5-5.9,65.2c15.8,19.8,45.5,21.7,65.2,5.9C1528.8,338.4,1530.8,308.7,1515,290.9 M1641.5,182.2
			c-17.8-19.8-45.5-21.7-65.2-5.9c-19.8,17.8-21.7,45.5-5.9,65.2c17.8,19.8,45.5,21.7,65.2,5.9
			C1655.4,229.6,1657.3,200,1641.5,182.2 M1768,73.5c-15.8-19.8-45.5-21.7-65.2-5.9c-19.8,17.8-21.7,45.5-4,65.2
			c15.8,19.8,45.5,21.7,65.2,5.9C1781.9,120.9,1783.8,93.2,1768,73.5 M1894.5-35.2c-15.8-19.8-45.5-21.7-65.2-5.9
			c-17.8,17.8-19.8,45.5-4,65.2s45.5,21.7,65.2,5.9C1910.4,12.2,1912.3-15.5,1894.5-35.2 M1386.5,686.3c17.8-19.8,13.8-49.4-4-65.2
			c-19.8-17.8-49.4-15.8-65.2,4c-17.8,19.8-13.8,49.4,4,65.2C1341,708,1370.7,704.1,1386.5,686.3 M1515,795
			c15.8-19.8,13.8-49.4-5.9-65.2c-19.8-17.8-49.4-15.8-65.2,4c-15.8,19.8-13.8,49.4,5.9,65.2C1467.6,816.8,1497.2,812.8,1515,795
			 M1641.5,903.7c15.8-19.8,13.8-49.4-5.9-65.2c-19.8-17.8-47.4-15.8-65.2,4c-15.8,19.8-13.8,49.4,5.9,65.2
			C1596,923.5,1623.7,921.5,1641.5,903.7 M1768,1012.5c15.8-19.8,13.8-49.4-4-65.2c-19.8-17.8-49.4-15.8-65.2,4
			c-17.8,19.8-15.8,49.4,4,65.2C1722.6,1032.2,1752.2,1030.3,1768,1012.5 M1890.6,1056c-19.8-17.8-49.4-15.8-65.2,4
			c-15.8,19.8-13.8,49.4,4,65.2c19.8,15.8,49.4,13.8,65.2-4C1912.3,1101.4,1910.4,1071.8,1890.6,1056 M1955.8,818.7V275.1
			l-316.3,270.8L1955.8,818.7z M1495.2,545.9l460.6-395.4V18.1L1341,545.9l614.8,529.8V943.3L1495.2,545.9z M1951.9,1394h4v-128.5
			l-836.2-719.6l836.2-719.6v-126.5h-4L967.4,545.9L1951.9,1394z M641.2,577.6c17.8,17.8,45.5,21.7,65.2,4
			c19.8-15.8,21.7-45.5,5.9-65.2c-17.8-19.8-45.5-21.7-65.2-4C627.4,528.1,625.4,557.8,641.2,577.6 M548.3,399.7
			c-17.8,17.8-13.8,47.4,4,65.2c19.8,15.8,49.4,13.8,65.2-5.9c17.8-19.8,13.8-49.4-4-65.2C593.8,377.9,564.1,379.9,548.3,399.7
			 M419.8,290.9c-15.8,17.8-13.8,47.4,5.9,65.2c19.8,15.8,49.4,13.8,65.2-5.9c15.8-19.8,13.8-49.4-5.9-65.2
			C467.3,269.2,437.6,271.2,419.8,290.9 M293.3,182.2c-15.8,17.8-13.8,47.4,5.9,65.2c19.8,15.8,47.4,13.8,65.2-5.9
			c15.8-19.8,13.8-47.4-5.9-65.2C338.8,160.5,311.1,162.4,293.3,182.2 M166.8,73.5c-17.8,19.8-13.8,47.4,4,65.2
			c19.8,15.8,49.4,13.8,65.2-5.9c17.8-19.8,15.8-47.4-4-65.2C212.3,51.7,182.6,53.7,166.8,73.5 M44.2,30
			c19.8,15.8,49.4,13.8,65.2-5.9c15.8-19.8,13.8-47.4-4-65.2C85.7-57,56.1-55,40.3-35.2C22.5-15.5,24.5,12.2,44.2,30 M548.3,686.3
			c15.8,17.8,45.5,21.7,65.2,4c17.8-15.8,21.7-45.5,4-65.2c-15.8-19.8-45.5-21.7-65.2-4C534.5,636.9,530.5,666.5,548.3,686.3
			 M419.8,795c17.8,17.8,47.4,21.7,65.2,4c19.8-15.8,21.7-45.5,5.9-65.2c-15.8-19.8-45.5-21.7-65.2-4C406,745.6,404,775.3,419.8,795
			 M293.3,903.7c17.8,17.8,45.5,19.8,65.2,4c19.8-15.8,21.7-45.5,5.9-65.2c-17.8-19.8-45.5-21.7-65.2-4
			C279.5,854.3,277.5,884,293.3,903.7 M166.8,1012.5c15.8,17.8,45.5,19.8,65.2,4c19.8-15.8,21.7-45.5,4-65.2
			c-15.8-19.8-45.5-21.7-65.2-4C153,963.1,149,992.7,166.8,1012.5 M40.3,1121.2c15.8,17.8,45.5,19.8,65.2,4
			c17.8-15.8,19.8-45.5,4-65.2c-15.8-19.8-45.5-21.7-65.2-4C24.5,1071.8,22.5,1101.4,40.3,1121.2 M-21,275.1v543.6l316.3-272.8
			L-21,275.1z M439.6,545.9L-21,943.3v132.4l612.8-529.8L-21,18.1v132.4L439.6,545.9z M-17-300.1h-4v126.5l836.2,719.6L-21,1265.5
			V1394h4l984.5-848.1L-17-300.1z"/>
	</g>
</g>
</svg>
