<?xml version="1.0" encoding="utf-8"?>
<!-- Generator: Adobe Illustrator 27.1.0, SVG Export Plug-In . SVG Version: 6.00 Build 0)  -->
<svg version="1.1" id="Layer_1" xmlns="http://www.w3.org/2000/svg" xmlns:xlink="http://www.w3.org/1999/xlink" x="0px" y="0px"
	 viewBox="0 0 1920 1080" style="enable-background:new 0 0 1920 1080;" xml:space="preserve">
<style type="text/css">
	.st0{fill:#D98E04;}
	.st1{clip-path:url(#SVGID_00000045606578946168041150000000725534269573275813_);fill:#DB9411;}
</style>
<rect x="-9.8" y="-431.2" class="st0" width="1943.3" height="1910.9"/>
<g>
	<defs>
		<rect id="SVGID_1_" x="-9.8" y="-525" width="1943.3" height="2102"/>
	</defs>
	<clipPath id="SVGID_00000019670243511261692620000002255609369792696705_">
		<use xlink:href="#SVGID_1_"  style="overflow:visible;"/>
	</clipPath>
	<path style="clip-path:url(#SVGID_00000019670243511261692620000002255609369792696705_);fill:#DB9411;" d="M168.4,322.1L380.7,175
		L168.4,27.8V322.1z M950.4-424.1c-27.3,0-50.4,23.1-50.4,50.4c0,29.4,23.1,52.6,50.4,52.6c29.4,0,52.6-23.1,52.6-52.6
		C1002.9-401,979.8-424.1,950.4-424.1 M168.4,1038.9l212.3-149.2L168.4,742.5V1038.9z M1555.7,1577L1555.7,1577H1768v-147.1
		L1555.7,1577z M637.2,1108.3L471.1,1226l166.1,119.8V1108.3z M168.4,1429.9V1577h210.2h2.1L168.4,1429.9z M378.6-525H168.4v147.1
		L378.6-525z M1768,27.8L1555.7,175L1768,322.1V27.8z M1768,742.5l-212.3,147.1l212.3,149.2V742.5z M1299.3,1345.8l164-119.8
		l-164-117.7V1345.8z M1768-377.9V-525h-212.3L1768-377.9z M1299.3,406.2v237.5l164-117.7L1299.3,406.2z M1181.6-525H1066v470.8
		v458.2v241.7V1577h115.6V877V175V-525z M1385.5-525h-201.8L1665-176.1l-483.5,351L1665,526l-483.5,351L1665,1226l-481.4,351h201.8
		l481.4-351L1383.4,877l483.5-353.1L1383.4,175l483.5-351L1385.5-525z M1299.3-56.3l164-119.8l-164-119.8V-56.3z M950.4,38.3
		c29.4,0,52.6-23.1,52.6-52.5c0-27.3-23.1-50.4-52.6-50.4c-27.3,0-50.4,23.1-50.4,50.4C899.9,15.2,923,38.3,950.4,38.3 M637.2-295.9
		L471.1-176.1L637.2-56.3V-295.9z M752.8,1577h115.6V645.8V404.1V-525H752.8v700V877V1577z M950.4-140.3c29.4,0,52.6-23.1,52.6-52.5
		c0-29.4-23.1-52.6-52.6-52.6c-27.3,0-50.4,23.1-50.4,52.6C899.9-163.5,923-140.3,950.4-140.3 M637.2,643.7V406.2L471.1,526
		L637.2,643.7z M551,175L67.5,523.9L551,877L67.5,1226l481.4,351h201.8l-481.4-351L752.8,877L269.3,526l483.5-351l-483.5-351
		L750.7-525H548.9L67.5-176.1L551,175z M950.4,938c29.4,0,52.6-23.1,52.6-52.6c0-29.4-23.1-52.6-52.6-52.6
		c-27.3,0-50.4,23.1-50.4,52.6C899.9,914.9,923,938,950.4,938 M950.4,1476.1c29.4,0,52.6-23.1,52.6-50.4c0-29.4-23.1-52.6-52.6-52.6
		c-27.3,0-50.4,23.1-50.4,52.6C899.9,1453,923,1476.1,950.4,1476.1 M950.4,1116.7c29.4,0,52.6-23.1,52.6-50.4
		c0-29.4-23.1-52.6-52.6-52.6c-27.3,0-50.4,23.1-50.4,52.6C899.9,1093.5,923,1116.7,950.4,1116.7 M950.4,1297.4
		c29.4,0,52.6-23.1,52.6-52.6c0-29.4-23.1-52.6-52.6-52.6c-27.3,0-50.4,23.1-50.4,52.6C899.9,1274.3,923,1297.4,950.4,1297.4
		 M950.4,757.2c29.4,0,52.6-23.1,52.6-50.4c0-29.4-23.1-52.6-52.6-52.6c-27.3,0-50.4,23.1-50.4,52.6
		C899.9,734.1,923,757.2,950.4,757.2 M950.4,219.1c29.4,0,52.6-23.1,52.6-52.6c0-29.4-23.1-52.6-52.6-52.6
		c-27.3,0-50.4,23.1-50.4,52.6C899.9,196,923,219.1,950.4,219.1 M950.4,397.8c29.4,0,52.6-23.1,52.6-52.6
		c0-27.3-23.1-50.4-52.6-50.4c-27.3,0-50.4,23.1-50.4,50.4C899.9,374.7,923,397.8,950.4,397.8 M950.4,578.5
		c29.4,0,52.6-23.1,52.6-52.5c0-29.4-23.1-52.6-52.6-52.6c-27.3,0-50.4,23.1-50.4,52.6C899.9,555.4,923,578.5,950.4,578.5"/>
</g>
</svg>
